<mxfile host="app.diagrams.net" modified="2022-07-29T10:18:16.061Z" agent="5.0 (Macintosh; Intel Mac OS X 10_15_7) AppleWebKit/537.36 (KHTML, like Gecko) Chrome/103.0.0.0 Safari/537.36" etag="yWG3c2rhEthE94amLxfC" version="20.2.0" type="github">
  <diagram id="HxfmBacdj0r3upCeBDEK" name="Page-1">
    <mxGraphModel dx="946" dy="666" grid="1" gridSize="10" guides="1" tooltips="1" connect="1" arrows="1" fold="1" page="1" pageScale="1" pageWidth="827" pageHeight="1169" math="0" shadow="0">
      <root>
        <mxCell id="0" />
        <mxCell id="1" parent="0" />
        <mxCell id="gUkQn6-DiPegoFo77hGN-1" value="SYN_SENT" style="rounded=0;whiteSpace=wrap;html=1;fontSize=16;fontStyle=1;fillColor=#dae8fc;strokeColor=#6c8ebf;gradientColor=#7ea6e0;" parent="1" vertex="1">
          <mxGeometry x="160" y="80" width="120" height="130" as="geometry" />
        </mxCell>
        <mxCell id="gUkQn6-DiPegoFo77hGN-4" value="SYN&lt;br&gt;seq=0" style="endArrow=classic;html=1;rounded=0;exitX=1;exitY=0;exitDx=0;exitDy=0;entryX=0;entryY=1;entryDx=0;entryDy=0;fontSize=16;fillColor=#dae8fc;gradientColor=#7ea6e0;strokeColor=#6c8ebf;strokeWidth=2;" parent="1" source="gUkQn6-DiPegoFo77hGN-1" target="gUkQn6-DiPegoFo77hGN-6" edge="1">
          <mxGeometry width="50" height="50" relative="1" as="geometry">
            <mxPoint x="300" y="60" as="sourcePoint" />
            <mxPoint x="480" y="125" as="targetPoint" />
          </mxGeometry>
        </mxCell>
        <mxCell id="gUkQn6-DiPegoFo77hGN-5" value="SYN+ACK&lt;br&gt;seq=0，ack=1" style="edgeStyle=none;rounded=0;orthogonalLoop=1;jettySize=auto;html=1;fontSize=16;exitX=0;exitY=1;exitDx=0;exitDy=0;fillColor=#dae8fc;gradientColor=#7ea6e0;strokeColor=#6c8ebf;strokeWidth=2;entryX=1;entryY=1;entryDx=0;entryDy=0;" parent="1" source="gUkQn6-DiPegoFo77hGN-6" target="gUkQn6-DiPegoFo77hGN-1" edge="1">
          <mxGeometry relative="1" as="geometry">
            <mxPoint x="280" y="290" as="targetPoint" />
          </mxGeometry>
        </mxCell>
        <mxCell id="gUkQn6-DiPegoFo77hGN-6" value="LISTEN" style="rounded=0;whiteSpace=wrap;html=1;fontSize=16;fontStyle=1;fillColor=#e6d0de;strokeColor=#996185;gradientColor=#d5739d;" parent="1" vertex="1">
          <mxGeometry x="520" y="70" width="120" height="60" as="geometry" />
        </mxCell>
        <mxCell id="gUkQn6-DiPegoFo77hGN-8" value="SYN_RECV" style="rounded=0;whiteSpace=wrap;html=1;fontSize=16;fontStyle=1;fillColor=#dae8fc;strokeColor=#6c8ebf;gradientColor=#66B2FF;" parent="1" vertex="1">
          <mxGeometry x="520" y="130" width="120" height="110" as="geometry" />
        </mxCell>
        <mxCell id="gUkQn6-DiPegoFo77hGN-9" value="ACK&lt;br&gt;seq=1&lt;br&gt;ack=1" style="edgeStyle=none;rounded=0;orthogonalLoop=1;jettySize=auto;html=1;entryX=0;entryY=0;entryDx=0;entryDy=0;fontFamily=Helvetica;fontSize=16;exitX=1;exitY=0;exitDx=0;exitDy=0;fillColor=#dae8fc;gradientColor=#7ea6e0;strokeColor=#6c8ebf;strokeWidth=2;" parent="1" source="gUkQn6-DiPegoFo77hGN-10" target="gUkQn6-DiPegoFo77hGN-11" edge="1">
          <mxGeometry relative="1" as="geometry" />
        </mxCell>
        <mxCell id="gUkQn6-DiPegoFo77hGN-10" value="&lt;span style=&quot;font-weight: 700;&quot;&gt;ESTABLISHED&lt;/span&gt;" style="rounded=0;whiteSpace=wrap;html=1;fontSize=16;fontFamily=Helvetica;fillColor=#d5e8d4;strokeColor=#82b366;gradientColor=#97d077;" parent="1" vertex="1">
          <mxGeometry x="160" y="210" width="120" height="220" as="geometry" />
        </mxCell>
        <mxCell id="gUkQn6-DiPegoFo77hGN-11" value="&lt;span style=&quot;font-weight: 700;&quot;&gt;ESTABLISHED&lt;/span&gt;" style="rounded=0;whiteSpace=wrap;html=1;fontSize=16;fontFamily=Helvetica;fillColor=#d5e8d4;strokeColor=#82b366;gradientColor=#97d077;" parent="1" vertex="1">
          <mxGeometry x="520" y="240" width="120" height="60" as="geometry" />
        </mxCell>
        <mxCell id="gUkQn6-DiPegoFo77hGN-39" value="" style="endArrow=none;dashed=1;html=1;dashPattern=1 3;strokeWidth=2;rounded=0;fontFamily=Helvetica;fontSize=16;fontColor=#FF6666;" parent="1" edge="1">
          <mxGeometry width="50" height="50" relative="1" as="geometry">
            <mxPoint x="105" y="480" as="sourcePoint" />
            <mxPoint x="685" y="490" as="targetPoint" />
          </mxGeometry>
        </mxCell>
        <mxCell id="gUkQn6-DiPegoFo77hGN-40" value="建立与上一个连接&lt;br&gt;相同四元组的连接" style="text;html=1;align=center;verticalAlign=middle;resizable=0;points=[];autosize=1;strokeColor=#36393d;fillColor=#ffff88;fontSize=16;fontFamily=Helvetica;" parent="1" vertex="1">
          <mxGeometry x="650" y="470" width="140" height="40" as="geometry" />
        </mxCell>
        <mxCell id="gUkQn6-DiPegoFo77hGN-41" value="&lt;font color=&quot;#ff6666&quot;&gt;&lt;b&gt;PUSH, ACK&lt;br&gt;seq=1，ack=1&lt;br&gt;len=10&lt;/b&gt;&lt;/font&gt;" style="edgeStyle=none;rounded=0;orthogonalLoop=1;jettySize=auto;html=1;fontFamily=Helvetica;fontSize=16;exitX=1;exitY=0;exitDx=0;exitDy=0;fillColor=#f8cecc;strokeColor=#b85450;strokeWidth=2;" parent="1" edge="1">
          <mxGeometry relative="1" as="geometry">
            <mxPoint x="280" y="280" as="sourcePoint" />
            <mxPoint x="420" y="305" as="targetPoint" />
          </mxGeometry>
        </mxCell>
        <mxCell id="gUkQn6-DiPegoFo77hGN-43" value="RST" style="rounded=0;orthogonalLoop=1;jettySize=auto;html=1;fontSize=16;exitX=0;exitY=0;exitDx=0;exitDy=0;fillColor=#f8cecc;strokeColor=#FF6666;strokeWidth=2;fontColor=#FF6666;fontStyle=1;entryX=1;entryY=0;entryDx=0;entryDy=0;" parent="1" target="gUkQn6-DiPegoFo77hGN-44" edge="1">
          <mxGeometry relative="1" as="geometry">
            <mxPoint x="520" y="400" as="sourcePoint" />
            <mxPoint x="290" y="430" as="targetPoint" />
          </mxGeometry>
        </mxCell>
        <mxCell id="gUkQn6-DiPegoFo77hGN-44" value="CLOSED" style="rounded=0;whiteSpace=wrap;html=1;fontSize=16;fontStyle=1;fillColor=#f5f5f5;strokeColor=#666666;gradientColor=#b3b3b3;" parent="1" vertex="1">
          <mxGeometry x="160" y="430" width="120" height="50" as="geometry" />
        </mxCell>
        <mxCell id="gUkQn6-DiPegoFo77hGN-46" value="LISTEN" style="rounded=0;whiteSpace=wrap;html=1;fontSize=16;fontStyle=1;fillColor=#e6d0de;strokeColor=#996185;gradientColor=#d5739d;" parent="1" vertex="1">
          <mxGeometry x="520" y="490" width="120" height="40" as="geometry" />
        </mxCell>
        <mxCell id="gUkQn6-DiPegoFo77hGN-47" value="SYN_SENT" style="rounded=0;whiteSpace=wrap;html=1;fontSize=16;fontStyle=1;fillColor=#dae8fc;strokeColor=#6c8ebf;gradientColor=#7ea6e0;" parent="1" vertex="1">
          <mxGeometry x="160" y="480" width="120" height="140" as="geometry" />
        </mxCell>
        <mxCell id="gUkQn6-DiPegoFo77hGN-48" value="SYN&lt;br&gt;seq=0" style="endArrow=classic;html=1;rounded=0;exitX=1;exitY=0;exitDx=0;exitDy=0;entryX=0;entryY=1;entryDx=0;entryDy=0;fontSize=16;fillColor=#dae8fc;gradientColor=#7ea6e0;strokeColor=#6c8ebf;strokeWidth=2;" parent="1" edge="1">
          <mxGeometry width="50" height="50" relative="1" as="geometry">
            <mxPoint x="280" y="480" as="sourcePoint" />
            <mxPoint x="520" y="530" as="targetPoint" />
          </mxGeometry>
        </mxCell>
        <mxCell id="gUkQn6-DiPegoFo77hGN-49" value="SYN_RECV" style="rounded=0;whiteSpace=wrap;html=1;fontSize=16;fontStyle=1;fillColor=#dae8fc;strokeColor=#6c8ebf;gradientColor=#66B2FF;" parent="1" vertex="1">
          <mxGeometry x="520" y="530" width="120" height="120" as="geometry" />
        </mxCell>
        <mxCell id="gUkQn6-DiPegoFo77hGN-51" value="&lt;span style=&quot;font-weight: 700;&quot;&gt;ESTABLISHED&lt;/span&gt;" style="rounded=0;whiteSpace=wrap;html=1;fontSize=16;fontFamily=Helvetica;fillColor=#d5e8d4;strokeColor=#82b366;gradientColor=#97d077;" parent="1" vertex="1">
          <mxGeometry x="520" y="650" width="120" height="120" as="geometry" />
        </mxCell>
        <mxCell id="gUkQn6-DiPegoFo77hGN-52" value="&lt;span style=&quot;font-weight: 700;&quot;&gt;ESTABLISHED&lt;/span&gt;" style="rounded=0;whiteSpace=wrap;html=1;fontSize=16;fontFamily=Helvetica;fillColor=#d5e8d4;strokeColor=#82b366;gradientColor=#97d077;" parent="1" vertex="1">
          <mxGeometry x="160" y="620" width="120" height="150" as="geometry" />
        </mxCell>
        <mxCell id="gUkQn6-DiPegoFo77hGN-53" value="SYN+ACK&lt;br&gt;seq=0，ack=1" style="edgeStyle=none;rounded=0;orthogonalLoop=1;jettySize=auto;html=1;fontSize=16;exitX=0;exitY=1;exitDx=0;exitDy=0;fillColor=#dae8fc;gradientColor=#7ea6e0;strokeColor=#6c8ebf;strokeWidth=2;entryX=1;entryY=1;entryDx=0;entryDy=0;" parent="1" edge="1">
          <mxGeometry relative="1" as="geometry">
            <mxPoint x="280" y="620" as="targetPoint" />
            <mxPoint x="520" y="540" as="sourcePoint" />
          </mxGeometry>
        </mxCell>
        <mxCell id="gUkQn6-DiPegoFo77hGN-54" value="ACK&lt;br&gt;seq=1&lt;br&gt;ack=1" style="edgeStyle=none;rounded=0;orthogonalLoop=1;jettySize=auto;html=1;entryX=0;entryY=0;entryDx=0;entryDy=0;fontFamily=Helvetica;fontSize=16;exitX=1;exitY=0;exitDx=0;exitDy=0;fillColor=#dae8fc;gradientColor=#7ea6e0;strokeColor=#6c8ebf;strokeWidth=2;" parent="1" edge="1">
          <mxGeometry relative="1" as="geometry">
            <mxPoint x="280" y="620" as="sourcePoint" />
            <mxPoint x="520" y="650" as="targetPoint" />
          </mxGeometry>
        </mxCell>
        <mxCell id="gUkQn6-DiPegoFo77hGN-56" value="刚好历史数据报文的序列号&lt;br&gt;在服务端接收窗口范围内，&lt;br&gt;所以历史数据报文会被接收" style="text;html=1;align=center;verticalAlign=middle;resizable=0;points=[];autosize=1;strokeColor=#36393d;fillColor=#ffff88;fontSize=16;fontFamily=Helvetica;" parent="1" vertex="1">
          <mxGeometry x="290" y="750" width="210" height="60" as="geometry" />
        </mxCell>
        <mxCell id="gUkQn6-DiPegoFo77hGN-57" value="被网络阻塞" style="text;html=1;align=center;verticalAlign=middle;resizable=0;points=[];autosize=1;strokeColor=#b85450;fillColor=#f8cecc;fontSize=16;" parent="1" vertex="1">
          <mxGeometry x="414" y="270" width="100" height="20" as="geometry" />
        </mxCell>
        <mxCell id="gUkQn6-DiPegoFo77hGN-58" value="&lt;font color=&quot;#ff6666&quot;&gt;&lt;b&gt;PUSH, ACK&lt;br&gt;seq=1，ack=1&lt;br&gt;len=10&lt;/b&gt;&lt;/font&gt;" style="edgeStyle=none;rounded=0;orthogonalLoop=1;jettySize=auto;html=1;fontFamily=Helvetica;fontSize=16;exitX=1;exitY=0;exitDx=0;exitDy=0;fillColor=#f8cecc;strokeColor=#b85450;strokeWidth=2;" parent="1" edge="1">
          <mxGeometry relative="1" as="geometry">
            <mxPoint x="380" y="697.5" as="sourcePoint" />
            <mxPoint x="520" y="722.5" as="targetPoint" />
          </mxGeometry>
        </mxCell>
        <mxCell id="gUkQn6-DiPegoFo77hGN-60" value="服务端设备&lt;br&gt;断电重启" style="text;html=1;align=center;verticalAlign=middle;resizable=0;points=[];autosize=1;strokeColor=#36393d;fillColor=#ffff88;fontSize=16;fontFamily=Helvetica;" parent="1" vertex="1">
          <mxGeometry x="640" y="280" width="100" height="50" as="geometry" />
        </mxCell>
        <mxCell id="VIjpSb7o08JG5jG0fglc-3" value="CLOSED" style="rounded=0;whiteSpace=wrap;html=1;fontSize=16;fontStyle=1;fillColor=#f5f5f5;strokeColor=#666666;gradientColor=#b3b3b3;" vertex="1" parent="1">
          <mxGeometry x="520" y="300" width="120" height="180" as="geometry" />
        </mxCell>
        <mxCell id="VIjpSb7o08JG5jG0fglc-5" value="&lt;b style=&quot;&quot;&gt;PUSH, ACK&lt;br&gt;seq=1，ack=1&lt;br&gt;len=10&lt;/b&gt;" style="edgeStyle=none;rounded=0;orthogonalLoop=1;jettySize=auto;html=1;fontFamily=Helvetica;fontSize=16;exitX=1;exitY=0;exitDx=0;exitDy=0;fillColor=#f8cecc;strokeColor=#007FFF;strokeWidth=2;entryX=0;entryY=0.5;entryDx=0;entryDy=0;" edge="1" parent="1" target="VIjpSb7o08JG5jG0fglc-3">
          <mxGeometry relative="1" as="geometry">
            <mxPoint x="280" y="360" as="sourcePoint" />
            <mxPoint x="420" y="385" as="targetPoint" />
          </mxGeometry>
        </mxCell>
        <mxCell id="VIjpSb7o08JG5jG0fglc-7" value="超&lt;br&gt;时&lt;br&gt;重&lt;br&gt;传" style="text;html=1;align=center;verticalAlign=middle;resizable=0;points=[];autosize=1;strokeColor=#36393d;fillColor=#ffff88;fontSize=16;fontFamily=Helvetica;" vertex="1" parent="1">
          <mxGeometry x="240" y="275" width="40" height="90" as="geometry" />
        </mxCell>
      </root>
    </mxGraphModel>
  </diagram>
</mxfile>
